<svg xmlns="http://www.w3.org/2000/svg" width="1em" height="1em" viewBox="0 0 24 24"><path fill="white" fill-rule="evenodd" d="M10.488 3.788A5.25 5.25 0 0 1 14.2 2.25h2.7a.75.75 0 0 1 .75.75v3.6a.75.75 0 0 1-.75.75h-2.7a.15.15 0 0 0-.15.15v1.95h2.85a.75.75 0 0 1 .728.932l-.9 3.6a.75.75 0 0 1-.728.568h-1.95V21a.75.75 0 0 1-.75.75H9.7a.75.75 0 0 1-.75-.75v-6.45H7a.75.75 0 0 1-.75-.75v-3.6A.75.75 0 0 1 7 9.45h1.95V7.5a5.25 5.25 0 0 1 1.538-3.712M14.2 3.75a3.75 3.75 0 0 0-3.75 3.75v2.7a.75.75 0 0 1-.75.75H7.75v2.1H9.7a.75.75 0 0 1 .75.75v6.45h2.1V13.8a.75.75 0 0 1 .75-.75h2.114l.525-2.1H13.3a.75.75 0 0 1-.75-.75V7.5a1.65 1.65 0 0 1 1.65-1.65h1.95v-2.1z" clip-rule="evenodd"/></svg>