<svg xmlns="http://www.w3.org/2000/svg" width="1em" height="1em" viewBox="0 0 24 24"><path fill="hsl(169, 13%, 21%)" d="M10.367 4.061C9.667 4.567 5 8.158 5 14a7 7 0 0 0 6.92 7a4 4 0 0 1-3.874-4.616c.336-2.254 2.41-4.167 3.412-4.974a.856.856 0 0 1 1.084 0c1.003.807 3.076 2.72 3.412 4.974A4.025 4.025 0 0 1 16 17a4 4 0 0 1-3.92 4A6.998 6.998 0 0 0 19 14.057V14c-.026-4.241-2.896-6.555-3.419-6.942a.136.136 0 0 0-.163 0c-.21.155-.794.618-1.421 1.39a.156.156 0 0 1-.26-.032c-1.18-2.495-2.813-4.009-3.198-4.345a.135.135 0 0 0-.172-.01"/></svg>