<svg xmlns="http://www.w3.org/2000/svg" width="1em" height="1em" viewBox="0 0 64 64"><path fill="#d32f2f" d="M45.205 42.159a2.265 2.265 0 1 0 0 4.533a2.266 2.266 0 0 0 0-4.533m-27.12-.041a2.266 2.266 0 1 0-.002 4.532a2.266 2.266 0 0 0 .002-4.532m13.751-17.873h-5.284v5.284h-5.285v5.285h5.285v5.283h5.284v-5.283h5.284v-5.285h-5.284z"/><path fill="#d32f2f" d="M55.145.534H8.572C4.008.534.296 4.247.296 8.812v46.567c0 4.565 3.713 8.279 8.276 8.279h46.573c4.564 0 8.277-3.713 8.277-8.279V8.812c0-4.564-3.713-8.278-8.277-8.278M33.504 17.736h1.326v-.642c0-1.142.998-2.066 2.233-2.066c1.233 0 2.23.924 2.23 2.066v.642h1.298v1.015h-7.088v-1.015zm-15.429 31.38a4.737 4.737 0 0 1-4.737-4.737a4.74 4.74 0 0 1 4.737-4.739a4.737 4.737 0 1 1 0 9.476m27.131.048a4.74 4.74 0 0 1 0-9.477c2.615 0 4.735 2.121 4.735 4.738s-2.119 4.739-4.735 4.739m9.624-4.731h-3.472c0-3.399-2.754-6.165-6.153-6.165c-3.4 0-6.156 2.766-6.156 6.165H24.212c0-3.399-2.755-6.165-6.154-6.165c-3.401 0-6.156 2.766-6.156 6.165H9.025c-1.013 0-1.802-.767-1.802-1.757V21.947c0-1.129.891-2.037 1.984-2.037h37.249c1.416 0 2.451.703 2.962 1.934l3.74 9.105c1.415.276 2.263.887 2.902 4.38l1.011 6.304c.364 2.052-.795 2.8-2.241 2.8"/><path fill="#d32f2f" d="M40.743 22.024v8.611H50.7l-3.492-8.611z"/></svg>