<svg xmlns="http://www.w3.org/2000/svg" width="1em" height="1em" viewBox="0 0 64 64"><path fill="#db143c" d="M27.83 32.711v-.01c.605-.236 1.004-.757 1.004-1.741c0-1.401-.911-2.036-2.304-2.036c-.666 0-1.269.02-1.916.092v6.786h1.322V33.12h.686c.174 0 .215.092.266.286l.627 2.395h1.381l-.83-2.774c-.041-.172-.092-.275-.236-.316m-1.157-.646h-.737v-2.067c.216-.02.43-.031.644-.031c.79 0 .953.471.953 1.074c0 .717-.255 1.024-.86 1.024m10.253.749h1.795v-1.096h-1.795v-1.637h1.99v-1.106h-3.309v6.827h3.39v-1.076h-2.071zm-26.44 0h1.793v-1.096h-1.793v-1.637h1.987v-1.106H9.165v6.827h3.391v-1.076h-2.069zm10.972 0h1.795v-1.096h-1.795v-1.637h1.989v-1.106h-3.309v6.827h3.39v-1.076h-2.07zm-5.235-1.25l-1.342-2.589h-1.239v6.827h1.291v-4.411l1.291 2.589l1.28-2.599h.041v4.421h1.239v-6.827h-1.239zm16.116 1.545h.93v.245c0 .708-.102 1.506-.982 1.506c-1.147 0-1.177-1.627-1.177-2.466c0-.831.083-2.406 1.219-2.406c.532 0 .788.296 1.084.664l.728-.973c-.524-.52-1.066-.819-1.793-.819c-1.935 0-2.623 1.843-2.623 3.541c0 1.68.626 3.512 2.521 3.512c1.852 0 2.222-1.608 2.222-3.092v-.797h-2.13zm20.1 2.693h1.312v-2.61l1.731-4.218h-1.343l-1.034 3.111l-1.035-3.111h-1.414l1.784 4.289zm-12.355 0h1.291v-4.216h.031l2.192 4.216h1.157v-6.827h-1.28v4.042h-.019l-2.091-4.043h-1.28z"/><path fill="#db143c" d="M55.653.826H8.298C4.232.826.425 4.641.425 8.706v47.342c0 4.067 3.822 7.901 7.89 7.901h47.34c4.066 0 7.895-3.814 7.895-7.88V8.712c0-4.065-3.829-7.885-7.897-7.885zm1.611 39.984h-16.85v16.833H23.565V40.81H6.71V23.965h16.855V7.132h16.849v16.833h16.85z"/><path fill="#db143c" d="M48.464 35.914c.839.001 1.495-.389 1.947-.942l-.676-.963c-.338.45-.643.788-1.199.788c-1.065 0-1.251-1.483-1.251-2.404c0-1.229.287-2.406 1.221-2.406c.503 0 .78.337 1.075.789l.79-.933c-.525-.623-1.047-.983-1.845-.983c-1.895 0-2.623 1.781-2.623 3.533c0 1.853.676 3.521 2.561 3.521"/></svg>