<svg xmlns="http://www.w3.org/2000/svg" width="1em" height="1em" viewBox="0 0 24 24"><path fill="#d32f2f" d="M12.75 2a.75.75 0 0 0-1.5 0v3a.75.75 0 0 0 1.5 0z"/><path fill="#d32f2f" fill-rule="evenodd" d="M2 21.25h2V16a8 8 0 1 1 16 0v5.25h2a.75.75 0 0 1 0 1.5H2a.75.75 0 0 1 0-1.5m10.75-2.45a1.5 1.5 0 1 0-1.5 0v2.45h1.5zm.845-7.581a.75.75 0 0 1 .977-.414a4.764 4.764 0 0 1 2.623 2.623a.75.75 0 0 1-1.39.563a3.264 3.264 0 0 0-1.796-1.796a.75.75 0 0 1-.414-.976" clip-rule="evenodd"/><path fill="#d32f2f" d="M21.53 5.47a.75.75 0 0 1 0 1.06l-1.5 1.5a.75.75 0 1 1-1.06-1.06l1.5-1.5a.75.75 0 0 1 1.06 0m-18 0a.75.75 0 0 0-1.06 1.06l1.5 1.5a.75.75 0 0 0 1.06-1.06z"/></svg>