<svg xmlns="http://www.w3.org/2000/svg" width="1em" height="1em" viewBox="0 0 48 48"><g fill="none"><g clip-path="url(#healthiconsPavedRoadNegative0)"><path fill="hsla(16, 100%, 50%, 1)" fill-rule="evenodd" d="M48 0H0v48h48zM7.947 42c-1.104 0-2.005-.896-1.944-1.999A36 36 0 0 1 39.948 6.056c1.103-.062 2 .84 2 1.944v14c0 1.105-.899 1.989-1.996 2.111a18 18 0 0 0-15.894 15.893C23.936 41.102 23.052 42 21.948 42zm31.226-26.756c-.745.1-1.483.232-2.213.394l-.108-.488l-.216-.977l-.108-.488a29.016 29.016 0 0 1 2.376-.423l.067.495l.135.991zM32.67 16.97a27.013 27.013 0 0 0-4.01 2.025l-.261-.426l-.524-.852l-.262-.426a29.005 29.005 0 0 1 4.307-2.175l.187.464l.375.927zm-7.627 4.687a27.015 27.015 0 0 0-3.127 3.224l-.387-.317l-.773-.634l-.387-.317a29.039 29.039 0 0 1 3.358-3.463l.33.377l.657.753zm-5.676 6.923a27.008 27.008 0 0 0-1.9 4.07l-.47-.174l-.938-.346l-.469-.173a29 29 0 0 1 2.042-4.372l.433.249l.868.497zm-3.1 8.398a26.99 26.99 0 0 0-.326 2.224l-.497-.052l-.995-.104l-.497-.052c.084-.803.2-1.6.35-2.389l.49.094l.984.186z" clip-rule="evenodd"/></g><defs><clipPath id="healthiconsPavedRoadNegative0"><path d="M0 0h48v48H0z"/></clipPath></defs></g></svg>