<svg xmlns="http://www.w3.org/2000/svg" width="1em" height="1em" viewBox="0 0 24 24"><path fill="hsl(30, 50%, 80%)" d="M11.5 10.792V7q0-.213-.144-.356Q11.212 6.5 11 6.5t-.356.144Q10.5 6.788 10.5 7v3.865q0 .158.056.297q.056.138.186.269l1.904 1.923q.153.146.357.146t.35-.146q.147-.146.147-.35t-.146-.358zm-1.463 8.143q-2.974-.362-5.005-2.61T3 11q0-3.333 2.332-5.667Q7.664 3 10.995 3q3.332 0 5.668 2.333Q19 7.667 19 11q0 1.44-.5 2.713Q18 14.985 17.146 16H12.95q-1.17 0-2.002.8t-.929 1.95q0 .046.003.092t.015.093M13 21h6q.825 0 1.413-.587T21 19q0-.825-.587-1.412T19 17h-6q-.825 0-1.412.588T11 19q0 .825.588 1.413T13 21m0-1.27q-.31 0-.52-.21t-.21-.52q0-.31.21-.52t.52-.21q.31 0 .52.21t.21.52q0 .31-.21.52t-.52.21m3 0q-.31 0-.52-.21t-.21-.52q0-.31.21-.52t.52-.21q.31 0 .52.21t.21.52q0 .31-.21.52t-.52.21m3 0q-.31 0-.52-.21t-.21-.52q0-.31.21-.52t.52-.21q.31 0 .52.21t.21.52q0 .31-.21.52t-.52.21"/></svg>