<svg xmlns="http://www.w3.org/2000/svg" width="1em" height="1em" viewBox="0 0 64 64"><path fill="hsl(30, 50%, 80%)" d="M46.405 30.927h-7.217v-8.445a12.254 12.254 0 0 0 4.692-9.647c0-6.78-5.494-12.274-12.271-12.274c-5.57 0-10.703 4.179-11.769 8.786c-.238 1.02-.506 3.696-.506 3.696L16.775 19.5a.988.988 0 0 0 .903 1.372a1.404 1.404 0 0 1 1.531-.765c.764.14 1.263.88 1.112 1.643a1.387 1.387 0 0 1-.989 1.074v1.478a4.84 4.84 0 0 0 4.838 4.839h1.923v1.786h-7.818C9.29 30.92 3.409 37.52 3.409 44.264v18.82l9.891-.004V46.787h2.848V63.08l31.565.004V46.788h2.919v16.296l9.678-.004l.007-20.593c.001-5.13-5.079-11.566-13.915-11.56zM22.306 18.19c-.24.196-.557.304-.861.304c-.436 0-.849-.196-1.11-.545a1.361 1.361 0 0 1-.294-1.034c.043-.383.238-.708.532-.938c.589-.468 1.515-.359 1.972.23c.24.304.338.674.294 1.045c-.043.37-.228.708-.532.938zm4.191-.981v.032l-.306-.021a1.412 1.412 0 0 1-1.284-1.524a1.429 1.429 0 0 1 1.406-1.295l.119.011c.37.032.718.206.959.489c.238.296.359.655.325 1.036a1.402 1.402 0 0 1-1.218 1.274zm3.058 1.774a1.366 1.366 0 0 1-.237-1.045a1.39 1.39 0 0 1 .577-.915c.61-.436 1.524-.272 1.96.336a1.423 1.423 0 0 1-.338 1.972c-.24.164-.523.251-.817.251c-.457 0-.883-.217-1.144-.6zm2.429 10.683a1.408 1.408 0 0 1-1.404-1.404a1.412 1.412 0 0 1 2.821 0c0 .772-.632 1.404-1.417 1.404m0-5.162a1.41 1.41 0 1 1 .012-2.82a1.41 1.41 0 0 1-.012 2.82m5.923 12.278c5.122-.178 8.047 11.322 6.283 22.06c-1.037 4.556-3.755-.119-6.144-.522c-2.643-.446-4.132-.754-4.257-2.139c-.459-5.016 1.464-19.301 4.118-19.398zm-7.75 19.361c-.126 1.381-1.611 1.688-4.256 2.133c-2.388.403-5.24 5.351-6.144.523c-1.762-10.74 1.165-22.24 6.28-22.057c2.659.098 4.579 14.38 4.12 19.401m3.69-16.492a1.427 1.427 0 0 1-1.253-.761a1.41 1.41 0 0 1 .6-1.896c.674-.349 1.556-.066 1.906.6c.172.325.206.706.085 1.066a1.365 1.365 0 0 1-.685.829a1.348 1.348 0 0 1-.652.163zm-1.863-4.813a1.419 1.419 0 0 1-1.371-1.078a1.407 1.407 0 0 1 .174-1.066c.196-.327.502-.544.872-.632c.739-.185 1.511.293 1.697 1.034a1.411 1.411 0 0 1-1.372 1.741zm-1.861 4.813a1.404 1.404 0 0 1-1.242-2.057c.349-.666 1.231-.949 1.895-.6c.338.174.576.468.698.827c.109.359.075.74-.099 1.078a1.387 1.387 0 0 1-1.251.751z"/><path fill="hsl(30, 50%, 80%)" d="M40.729 57.976c.49 0 .957-.263 1.208-.674a1.416 1.416 0 0 0-.478-1.939c-.642-.391-1.546-.151-1.939.48c-.185.325-.25.695-.151 1.067c.087.371.315.674.643.87c.216.132.467.196.718.196zm1.469-4.889c.751 0 1.371-.597 1.403-1.348c.034-.785-.576-1.438-1.403-1.472c-.764 0-1.383.6-1.416 1.35c-.011.381.119.74.37 1.013c.262.272.611.436.991.457zm-1.068-4.998c.229 0 .436-.053.632-.151a1.401 1.401 0 0 0 .631-1.884c-.327-.676-1.197-.981-1.883-.642a1.413 1.413 0 0 0-.708.817c-.119.359-.098.74.077 1.078a1.4 1.4 0 0 0 1.252.783zm-3.321-3.887c.457 0 .882-.217 1.155-.597a1.422 1.422 0 0 0-.349-1.96c-.608-.436-1.525-.273-1.959.338a1.42 1.42 0 0 0 .336 1.971c.24.163.523.248.816.248zM23.241 57.976c.262 0 .51-.064.729-.196c.314-.196.544-.5.643-.87a1.39 1.39 0 0 0-.164-1.057c-.391-.642-1.295-.871-1.937-.491a1.462 1.462 0 0 0-.643.872a1.41 1.41 0 0 0 .164 1.067c.249.426.717.675 1.208.675m-1.459-4.889h.053a1.418 1.418 0 0 0 1.35-1.469c-.032-.75-.632-1.35-1.469-1.35c-.37.023-.719.174-.98.457c-.25.272-.381.631-.37 1.014a1.414 1.414 0 0 0 1.416 1.348m1.044-4.998c.544 0 1.036-.304 1.275-.782a1.428 1.428 0 0 0-.642-1.895c-.685-.339-1.557-.034-1.883.642a1.378 1.378 0 0 0-.075 1.079a1.417 1.417 0 0 0 1.325.956m3.333-3.887c.293 0 .576-.085.817-.249a1.423 1.423 0 0 0 .338-1.972c-.436-.61-1.351-.774-1.961-.338a1.39 1.39 0 0 0-.576.915c-.066.371.011.742.227 1.046c.272.381.698.598 1.155.598"/></svg>