<svg xmlns="http://www.w3.org/2000/svg" width="1em" height="1em" viewBox="0 0 24 24"><path fill="#21b2b2" d="M9 5a7 7 0 0 0-7 7a7 7 0 0 0 7 7c1.04 0 2.06-.24 3-.68c.94.44 1.96.68 3 .68a7 7 0 0 0 7-7a7 7 0 0 0-7-7c-1.04 0-2.06.24-3 .68c-.94-.44-1.96-.68-3-.68m0 2c.34 0 .67.03 1 .1c-1.28 1.31-2 3.07-2 4.9c0 1.83.72 3.59 2 4.89c-.33.07-.66.11-1 .11a5 5 0 0 1-5-5a5 5 0 0 1 5-5m6 0a5 5 0 0 1 5 5a5 5 0 0 1-5 5c-.34 0-.67-.03-1-.1c1.28-1.31 2-3.07 2-4.9c0-1.83-.72-3.59-2-4.89c.33-.07.66-.11 1-.11"/></svg>