<svg xmlns="http://www.w3.org/2000/svg" width="1em" height="1em" viewBox="0 0 14 14"><path fill="white" fill-rule="evenodd" d="M3.916 3.381a8.056 8.056 0 0 1 8.782 1.747a.75.75 0 1 0 1.06-1.06a9.556 9.556 0 0 0-13.517 0a.75.75 0 1 0 1.061 1.06a8.056 8.056 0 0 1 2.614-1.747M7 5.61a5.526 5.526 0 0 0-3.919 1.63a.75.75 0 0 1-1.064-1.058a7.027 7.027 0 0 1 9.966 0a.75.75 0 1 1-1.064 1.058A5.526 5.526 0 0 0 7 5.61m-.98 2.939a2.594 2.594 0 0 1 2.867.58a.75.75 0 1 0 1.075-1.047a4.094 4.094 0 0 0-5.866 0A.75.75 0 1 0 5.17 9.13c.242-.248.531-.446.85-.58Zm-.612 3.164a1.592 1.592 0 1 1 3.184 0a1.592 1.592 0 0 1-3.184 0" clip-rule="evenodd"/></svg>