<svg xmlns="http://www.w3.org/2000/svg" width="1em" height="1em" viewBox="0 0 64 64"><path fill="hsl(30, 50%, 80%)" d="M18.204 19.566a6.774 6.774 0 0 0 3.416-8.953a6.784 6.784 0 0 0-8.961-3.416a6.769 6.769 0 0 0-3.418 8.954a6.783 6.783 0 0 0 8.963 3.415m9.706-7.458a1.366 1.366 0 1 0-1.874.49a1.372 1.372 0 0 0 1.873-.491zm12.585-7.267a1.363 1.363 0 0 0-.493-1.866a1.366 1.366 0 1 0 .493 1.867zM36.3 7.263a1.357 1.357 0 0 0-.496-1.862a1.362 1.362 0 0 0-1.864.487a1.374 1.374 0 0 0 .492 1.872a1.368 1.368 0 0 0 1.869-.496zm8.391-4.843A1.372 1.372 0 0 0 44.2.551a1.375 1.375 0 0 0-1.871.496a1.362 1.362 0 0 0 .494 1.864a1.366 1.366 0 0 0 1.869-.491zm-12.847 7.586a1.36 1.36 0 0 0 .086-1.925a1.366 1.366 0 0 0-1.927-.089a1.36 1.36 0 0 0-.089 1.925a1.366 1.366 0 0 0 1.93.089m-3.934 4.63a1.367 1.367 0 1 1-1.874-.491a1.377 1.377 0 0 1 1.873.491zm8.39 4.849a1.36 1.36 0 0 1-.496 1.864a1.362 1.362 0 0 1-1.864-.491a1.367 1.367 0 0 1 2.361-1.372zm18.758 2.677H37.623c-4.804 0-9.09 3.896-9.09 8.698v21.054c0 1.645 1.289 2.983 2.929 2.983a2.98 2.98 0 0 0 2.974-2.983V32.933h2.46v30.38h7.984v-8.232h2.539v8.232h7.989V32.934h2.485v18.981c0 1.645 1.33 2.983 2.965 2.983c1.644 0 2.942-1.339 2.942-2.983V30.861c.001-4.802-3.941-8.699-8.743-8.699zm-14.294 3.162c-.652.38-1.49.161-1.871-.491a1.368 1.368 0 0 1 2.365-1.373c.376.65.158 1.488-.495 1.864zm4.196 2.424a1.373 1.373 0 0 1-1.869-.491a1.368 1.368 0 0 1 2.363-1.375c.378.65.158 1.484-.494 1.867zM31.844 16.74a1.364 1.364 0 1 1-1.841 2.014a1.364 1.364 0 0 1 1.841-2.014m1.498-4.468a1.367 1.367 0 1 1-1.869.511a1.375 1.375 0 0 1 1.869-.512zm12.757-5.668a6.79 6.79 0 1 0 0 13.58a6.792 6.792 0 0 0 6.791-6.789a6.793 6.793 0 0 0-6.791-6.791m-3.377 2.313a1.369 1.369 0 0 1 1.867-.507c.653.376.879 1.205.506 1.864a1.369 1.369 0 0 1-1.864.507a1.369 1.369 0 0 1-.508-1.864zm-1.815 5.728a1.372 1.372 0 0 1-.509-1.864a1.37 1.37 0 0 1 1.869-.507c.655.374.879 1.203.501 1.862a1.363 1.363 0 0 1-1.86.51zm4.252 3.254a1.371 1.371 0 0 1-1.864.51a1.368 1.368 0 0 1 1.359-2.372c.653.374.879 1.205.505 1.862m2.456-3.763a1.368 1.368 0 0 1-1.864.509a1.366 1.366 0 0 1 1.359-2.372c.65.374.883 1.207.505 1.862zm-10.198-2.009c.736.163 1.2.886 1.04 1.626a1.373 1.373 0 0 1-1.629 1.04a1.37 1.37 0 0 1-1.04-1.627a1.368 1.368 0 0 1 1.629-1.039m1.921 5.498c.734.165 1.2.888 1.04 1.626a1.373 1.373 0 0 1-1.629 1.04a1.365 1.365 0 0 1 .589-2.666"/><path fill="hsl(30, 50%, 80%)" d="M38.968 6.896a1.365 1.365 0 1 1-.587 2.667a1.365 1.365 0 0 1 .587-2.667M17.35 38.812a2.867 2.867 0 0 0 2.544 1.504c1.255 0 2.335-.748 2.768-1.851l5.167-15.164a2.957 2.957 0 1 0-5.599-1.905l-2.96 8.706l-3.207-5.745a6.378 6.378 0 0 0-11.434 1.396L.753 37.351c-.283.704-.467 1.956-.467 2.612v23.35h11.598v-19.11l3.189-9.483z"/></svg>