<svg xmlns="http://www.w3.org/2000/svg" width="1em" height="1em" viewBox="0 0 20 20"><path fill="white" d="M16.574 16.338c-.757-1.051-2.851-3.824-4.57-6.106c.696-.999 1.251-1.815 1.505-2.242c1.545-2.594.874-4.26.022-5.67C12.677.909 12.542.094 10 .094c-2.543 0-2.678.815-3.531 2.227c-.854 1.41-1.524 3.076.021 5.67c.254.426.809 1.243 1.506 2.242c-1.72 2.281-3.814 5.055-4.571 6.106c-.176.244-.16.664.009 1.082c.13.322.63 1.762.752 2.064c.156.389.664.67 1.082.092c.241-.334 2.582-3.525 4.732-6.522c2.149 2.996 4.491 6.188 4.732 6.522c.417.578.926.297 1.082-.092c.122-.303.622-1.742.752-2.064c.167-.419.184-.839.008-1.083m-6.94-9.275C8.566 5.579 7.802 3.852 7.802 3.852s.42-.758 2.198-.758s2.198.758 2.198.758s-.766 1.727-1.833 3.211L10 7.56a40.64 40.64 0 0 1-.366-.497"/></svg>