<svg xmlns="http://www.w3.org/2000/svg" width="1em" height="1em" viewBox="0 0 32 32"><g fill="rgb(255,69,0)"><path d="M11.27 9.47c.249 0 .48.075.685.197c.47.172.827.58.925 1.083c.03.15-.09.28-.24.28h-.087a.781.781 0 0 0 .047-.25c0-.51-.42-.92-.93-.92s-.93.41-.93.93c0 .086.01.163.028.24h-.438c-.18 0-.32-.18-.27-.36c.01-.04.021-.08.035-.119l-.035-.031a.45.45 0 0 1 .03-.69c.33-.23.77-.36 1.18-.36m5.43 0a1.33 1.33 0 0 0-.684.197c-.47.17-.83.576-.936 1.073c-.03.15.09.28.24.28h.095a1.014 1.014 0 0 1-.025-.23a.9.9 0 0 1 .91-.93c.51 0 .93.41.93.93c0 .082-.009.157-.025.23h.425c.19 0 .32-.17.28-.35c-.01-.04-.021-.08-.035-.119l.035-.031a.45.45 0 0 0-.03-.69a2.13 2.13 0 0 0-1.18-.36"/><path d="M11.67 10.25a.534.534 0 0 1 .47.78h-.94a.542.542 0 0 1 .016-.522a.16.16 0 1 0 .237-.21a.522.522 0 0 1 .217-.048m4.63 0a.521.521 0 0 0-.21.044a.16.16 0 0 1-.1.286a.16.16 0 0 1-.139-.08a.542.542 0 0 0-.021.53h.94a.534.534 0 0 0-.47-.78m-2.33 3.66c-.54 0-1.04-.13-1.47-.35c-.15-.08-.3.09-.21.23c.36.55.98.92 1.68.92s1.32-.36 1.68-.92c.09-.14-.07-.3-.21-.23c-.43.22-.93.35-1.47.35m-.91-1.66l.53-1.7c.12-.38.65-.38.76 0l.53 1.7c.1.35-.16.7-.52.7h-.78c-.37 0-.63-.35-.52-.7"/><path d="M24.95 30.991H2.997a1 1 0 0 1-1-1V26.5a11.93 11.93 0 0 1 4.384-9.267a4.338 4.338 0 0 1-1.182-2.59a9.437 9.437 0 0 1-.709-3.605V9c0-.064.007-.128.019-.191a2.967 2.967 0 0 1 2.062-2.617A5.979 5.979 0 0 1 12.48 1.06h.758a4.5 4.5 0 0 1 1.465 0h.767a5.98 5.98 0 0 1 5.912 5.138a2.991 2.991 0 0 1 2.074 2.673c.01.056.014.112.014.169v1.67c0 .067-.007.134-.02.2v.127a9.441 9.441 0 0 1-.708 3.6a4.33 4.33 0 0 1-.445 1.555l.703.188c.26.07.42.35.36.61l-.063.235l2.095.562c.735.192 1.515.17 2.228-.08l.509-.17a.253.253 0 0 1 .271.069a4.924 4.924 0 0 1 1.234 4.705a4.907 4.907 0 0 1-3.417 3.462c-.09.023-.203 0-.26-.08l-.035-.04c.02.282.029.565.028.849v3.491a1 1 0 0 1-1 .998m-3.348-7.449l-1.461 5.448h3.809v-2.498a9.978 9.978 0 0 0-.294-2.398zM18.266 26.7H7.52v2.29h10.131zM6.52 26.2a.5.5 0 0 1 .5-.5h6.48v-6.04h-.95c-1.09 0-1.98-.89-1.98-1.98v-.546c-3.591 1.302-6.219 4.608-6.537 8.56a9.779 9.779 0 0 0-.031.803L4 28.99h2.52zm12.761-3.28l-.326-.088c-.271-.068-.441-.328-.373-.577l1.06-3.952a9.945 9.945 0 0 0-2.182-1.138v.525c0 1.09-.89 1.98-1.98 1.98h-.98v6.03h4.035zM8.562 6.397c-.028.19-.042.384-.042.582V7h2.82V5.71c0-1.47 1.19-2.66 2.66-2.66c1.47 0 2.66 1.19 2.66 2.66V7h2.779a3.979 3.979 0 0 0-3.97-3.935h-.855a.962.962 0 0 1-.186-.017a2.524 2.524 0 0 0-.917 0a.968.968 0 0 1-.186.017h-.846a3.976 3.976 0 0 0-3.917 3.333M25.785 24.5h.005l.007-.001l.007-.001a3.612 3.612 0 0 0 2.527-2.55a3.624 3.624 0 0 0-.907-3.464a.186.186 0 0 0-.2-.05l-.375.125c-.192.067-.4.108-.6.133a2.713 2.713 0 0 1-.648 4.918c.073.294.134.591.184.89M12.74 5.08c0 .48.19.95.53 1.29c.17.17.4.27.63.25h.02c.24 0 .46-.08.64-.24c.26-.22.4-.54.4-.88v-.24c0-.09-.11-.13-.17-.07c-.13.13-.37.04-.37-.16V3.86c0-.12-.13-.19-.23-.13l-.23.14c-.33.2-.53.56-.53.94c0 .15-.19.23-.3.12l-.09-.09c-.11-.11-.3-.04-.3.12zM9.427 8.263c-.078.093-.177.269-.187.623l.024.565l-.325.133a1.13 1.13 0 0 0 .09 2.126l.336.105l.015.35c.116 2.62 2.118 4.366 4.59 4.366c2.464 0 4.476-1.749 4.59-4.369l.015-.348l.332-.106a1.13 1.13 0 0 0 .089-2.122l-.323-.133l.017-.41c-.007-.556-.194-.763-.313-.85a.661.661 0 0 0-.357-.122h-1.47c.653.06 1.142.323 1.22.365l.01.005c.13.08.18.25.1.38c-.05.08-.15.13-.24.13a.25.25 0 0 1-.14-.04l-.018-.009c-.12-.06-.813-.407-1.572-.261c-.15.03-.3-.07-.32-.22c-.03-.15.07-.3.22-.32c.072-.013.144-.023.215-.03h-4.022a2.5 2.5 0 0 1 .127.02c.15.03.25.17.22.32c-.02.16-.17.26-.32.23c-.759-.137-1.45.202-1.572.261a.173.173 0 0 1-.018.009a.23.23 0 0 1-.14.04a.27.27 0 0 1-.24-.14c-.08-.13-.03-.3.1-.38l.009-.005c.073-.039.526-.28 1.134-.355H9.687a.773.773 0 0 0-.26.192"/></g></svg>