<svg xmlns="http://www.w3.org/2000/svg" width="1em" height="1em" viewBox="0 0 20 20"><g fill="rgb(255,69,0)"><path fill-rule="evenodd" d="M6.96 13.1a.9.9 0 0 1 .9.9a2.14 2.14 0 0 0 4.28 0a.9.9 0 0 1 1.8 0a3.94 3.94 0 0 1-7.88 0a.9.9 0 0 1 .9-.9" clip-rule="evenodd"/><path fill-rule="evenodd" d="M10.043 9.693a.9.9 0 0 1 1.223-.35c1.482.824 2.165 2 2.463 2.978c.146.482.199.91.215 1.223a4.298 4.298 0 0 1-.007.533l-.001.013v.005l-.001.002v.001L13.04 14l.895.1a.9.9 0 0 1-1.79-.192m0 0v-.005l.003-.047a3.319 3.319 0 0 0-.141-1.01c-.187-.612-.61-1.37-1.615-1.929a.9.9 0 0 1-.35-1.224m-1.192.524a.9.9 0 0 0-1.273-.025a4.947 4.947 0 0 0-1.417 2.561a5.034 5.034 0 0 0-.105 1.213l.006.087l.002.029l.001.01v.004l.001.002l.874-.096l-.874.097a.9.9 0 0 0 1.79-.191m0-.002v.002zm0-.004v.004a2.205 2.205 0 0 1-.004-.186c.003-.142.019-.35.07-.594a3.147 3.147 0 0 1 .904-1.637a.9.9 0 0 0 .024-1.273m-.995 3.685" clip-rule="evenodd"/><path fill-rule="evenodd" d="M7.63 10.145a.9.9 0 0 1 1.267.12l1.244 1.503a.9.9 0 0 1-1.387 1.147L7.51 11.412a.9.9 0 0 1 .12-1.267" clip-rule="evenodd"/><path fill-rule="evenodd" d="M11.306 9.367a.9.9 0 0 1 .286 1.24L10.21 12.82a.9.9 0 0 1-1.526-.954l1.382-2.211a.9.9 0 0 1 1.24-.287" clip-rule="evenodd"/><path fill-rule="evenodd" d="M3.5 10a1 1 0 0 1 1 1c0 3.09 2.437 5.568 5.498 5.568c3.062 0 5.502-2.48 5.502-5.568a1 1 0 1 1 2 0c0 4.166-3.309 7.568-7.502 7.568S2.5 15.166 2.5 11a1 1 0 0 1 1-1" clip-rule="evenodd"/><path fill-rule="evenodd" d="M6.1 4.7a1 1 0 0 0-1.4.2C3.055 7.094 2.5 9.81 2.5 11a1 1 0 1 0 2 0c0-.81.445-3.094 1.8-4.9a1 1 0 0 0-.2-1.4m7.26-.968a1 1 0 0 1 1.408.128c1.372 1.646 2.052 3.421 2.39 4.772c.17.678.255 1.256.298 1.67a8.929 8.929 0 0 1 .043.635v.042l.001.013v.007l-1 .001h1a1 1 0 0 1-2 .003v-.02l-.004-.091a6.936 6.936 0 0 0-.03-.382a9.971 9.971 0 0 0-.249-1.392c-.287-1.15-.857-2.624-1.985-3.978a1 1 0 0 1 .128-1.408" clip-rule="evenodd"/><path fill-rule="evenodd" d="M4.985 4.643a1 1 0 0 1 1.372.343l1.5 2.5a1 1 0 0 1-1.715 1.028l-1.5-2.5a1 1 0 0 1 .343-1.372m3.803-3.345a1 1 0 0 1 1.415-.009L9.5 2l.703-.712l.002.003l.004.004l.015.014l.053.054a20.708 20.708 0 0 1 .786.844c.439.5 1.019 1.21 1.334 1.852c.255.516.518 1.178.712 1.69a38.236 38.236 0 0 1 .31.852l.02.053l.006.02a1 1 0 0 1-1.89.652l-.002-.004l-.004-.012l-.017-.048a32.959 32.959 0 0 0-.293-.804c-.19-.502-.426-1.09-.636-1.516c-.187-.381-.607-.92-1.043-1.415a18.716 18.716 0 0 0-.706-.758l-.044-.045l-.01-.01l-.002-.002a1 1 0 0 1-.01-1.415" clip-rule="evenodd"/><path fill-rule="evenodd" d="M9.545 1.225c.57.08.966.605.886 1.174l-1.03-.144l1.03.144v.003l-.001.006l-.003.022l-.012.077c-.01.066-.024.16-.044.275c-.038.23-.096.55-.171.905c-.144.676-.377 1.602-.716 2.263a21.67 21.67 0 0 1-.968 1.645a40.147 40.147 0 0 1-.517.788l-.033.049l-.012.017a1.04 1.04 0 0 1-1.718-1.172l.002-.003l.007-.01l.03-.045a30.657 30.657 0 0 0 .488-.744c.3-.47.644-1.032.87-1.473c.201-.392.39-1.077.532-1.748a19.453 19.453 0 0 0 .194-1.06l.01-.064l.002-.015V2.11a1.04 1.04 0 0 1 1.174-.886m4.97 2.419a1 1 0 0 0-1.372.343l-1.5 2.5a1 1 0 1 0 1.714 1.028l1.5-2.5a1 1 0 0 0-.342-1.372" clip-rule="evenodd"/><path d="M1.293 2.707a1 1 0 0 1 1.414-1.414l16 16a1 1 0 0 1-1.414 1.414z"/></g></svg>