<svg xmlns="http://www.w3.org/2000/svg" width="1em" height="1em" viewBox="0 0 48 48"><g fill="none"><g clip-path="url(#healthiconsCommunicationNegative0)"><path fill="hsla(348, 83%, 50%, 1)" fill-rule="evenodd" d="M48 0H0v48h48zM4 20.5C4 12.492 10.492 6 18.5 6h11C37.508 6 44 12.492 44 20.5S37.508 35 29.5 35H28v7S4 38.5 4 20.5m22.5.5a2.5 2.5 0 1 1-5 0a2.5 2.5 0 0 1 5 0m5.5 2.5a2.5 2.5 0 1 0 0-5a2.5 2.5 0 0 0 0 5M18.5 21a2.5 2.5 0 1 1-5 0a2.5 2.5 0 0 1 5 0" clip-rule="evenodd"/></g><defs><clipPath id="healthiconsCommunicationNegative0"><path d="M0 0h48v48H0z"/></clipPath></defs></g></svg>