<svg xmlns="http://www.w3.org/2000/svg" width="1em" height="1em" viewBox="0 0 14 14"><path fill="none" stroke="#d32f2f" stroke-linecap="round" stroke-linejoin="round" d="M3.494 5.47a1.146 1.146 0 0 0-1.082-.764h-.888a1.024 1.024 0 0 0-.219 2.024l1.352.296a1.147 1.147 0 0 1-.245 2.268h-.765c-.5 0-.924-.319-1.082-.764m12.87-3.06a1.148 1.148 0 0 0-1.082-.764h-.888a1.024 1.024 0 0 0-.219 2.024l1.352.296a1.147 1.147 0 0 1-.245 2.268h-.764c-.5 0-.925-.319-1.082-.764M5.47 5.853v2.294c0 .634.514 1.147 1.148 1.147h.764c.634 0 1.148-.513 1.148-1.147V5.853c0-.633-.514-1.147-1.148-1.147h-.764c-.634 0-1.147.514-1.147 1.147Z"/></svg>